<svg xmlns="http://www.w3.org/2000/svg" width="1600" height="1170" viewBox="0 0 1600 1170"><rect width="1600" height="1170" fill="#F8F5EE"/>
<text x="80" y="70" fill="#365D45" font-family="Helvetica, Arial, sans-serif" font-size="22" font-weight="600">GPXPLORE / THE BUILDING RHYTHM</text>
<text x="80" y="155" fill="#26382D" font-family="Helvetica, Arial, sans-serif" font-size="62" font-weight="700">100 days with a commit.</text>
<text x="80" y="212" fill="#647367" font-family="Helvetica, Arial, sans-serif" font-size="27" font-weight="400">One shared calendar—not the sum of each repo’s active days.</text>
<text x="80" y="290" fill="#537A89" font-family="Helvetica, Arial, sans-serif" font-size="23" font-weight="700">WEB</text>
<text x="330" y="290" fill="#647367" font-family="Helvetica, Arial, sans-serif" font-size="26" font-weight="400">976 commits · 51 active days · 130 merged PRs</text>
<rect x="80" y="325" width="24" height="24" rx="4" fill="#537A89"/>
<rect x="112" y="325" width="24" height="24" rx="4" fill="#537A89"/>
<rect x="144" y="325" width="24" height="24" rx="4" fill="#537A89"/>
<rect x="176" y="325" width="24" height="24" rx="4" fill="#537A89"/>
<rect x="208" y="325" width="24" height="24" rx="4" fill="#537A89"/>
<rect x="240" y="325" width="24" height="24" rx="4" fill="#537A89"/>
<rect x="272" y="325" width="24" height="24" rx="4" fill="#537A89"/>
<rect x="304" y="325" width="24" height="24" rx="4" fill="#537A89"/>
<rect x="336" y="325" width="24" height="24" rx="4" fill="#537A89"/>
<rect x="368" y="325" width="24" height="24" rx="4" fill="#537A89"/>
<rect x="400" y="325" width="24" height="24" rx="4" fill="#537A89"/>
<rect x="432" y="325" width="24" height="24" rx="4" fill="#537A89"/>
<rect x="464" y="325" width="24" height="24" rx="4" fill="#537A89"/>
<rect x="496" y="325" width="24" height="24" rx="4" fill="#537A89"/>
<rect x="528" y="325" width="24" height="24" rx="4" fill="#537A89"/>
<rect x="560" y="325" width="24" height="24" rx="4" fill="#537A89"/>
<rect x="592" y="325" width="24" height="24" rx="4" fill="#E1E4D9"/>
<rect x="624" y="325" width="24" height="24" rx="4" fill="#537A89"/>
<rect x="656" y="325" width="24" height="24" rx="4" fill="#537A89"/>
<rect x="688" y="325" width="24" height="24" rx="4" fill="#537A89"/>
<rect x="720" y="325" width="24" height="24" rx="4" fill="#537A89"/>
<rect x="752" y="325" width="24" height="24" rx="4" fill="#537A89"/>
<rect x="784" y="325" width="24" height="24" rx="4" fill="#537A89"/>
<rect x="816" y="325" width="24" height="24" rx="4" fill="#537A89"/>
<rect x="848" y="325" width="24" height="24" rx="4" fill="#537A89"/>
<rect x="880" y="325" width="24" height="24" rx="4" fill="#E1E4D9"/>
<rect x="912" y="325" width="24" height="24" rx="4" fill="#537A89"/>
<rect x="944" y="325" width="24" height="24" rx="4" fill="#537A89"/>
<rect x="976" y="325" width="24" height="24" rx="4" fill="#E1E4D9"/>
<rect x="1008" y="325" width="24" height="24" rx="4" fill="#537A89"/>
<rect x="1040" y="325" width="24" height="24" rx="4" fill="#E1E4D9"/>
<rect x="1072" y="325" width="24" height="24" rx="4" fill="#537A89"/>
<rect x="1104" y="325" width="24" height="24" rx="4" fill="#E1E4D9"/>
<rect x="1136" y="325" width="24" height="24" rx="4" fill="#E1E4D9"/>
<rect x="1168" y="325" width="24" height="24" rx="4" fill="#E1E4D9"/>
<rect x="1200" y="325" width="24" height="24" rx="4" fill="#E1E4D9"/>
<rect x="1232" y="325" width="24" height="24" rx="4" fill="#E1E4D9"/>
<rect x="1264" y="325" width="24" height="24" rx="4" fill="#E1E4D9"/>
<rect x="1296" y="325" width="24" height="24" rx="4" fill="#E1E4D9"/>
<rect x="1328" y="325" width="24" height="24" rx="4" fill="#537A89"/>
<rect x="1360" y="325" width="24" height="24" rx="4" fill="#E1E4D9"/>
<rect x="1392" y="325" width="24" height="24" rx="4" fill="#E1E4D9"/>
<rect x="1424" y="325" width="24" height="24" rx="4" fill="#537A89"/>
<rect x="1456" y="325" width="24" height="24" rx="4" fill="#537A89"/>
<rect x="1488" y="325" width="24" height="24" rx="4" fill="#537A89"/>
<rect x="80" y="357" width="24" height="24" rx="4" fill="#E1E4D9"/>
<rect x="112" y="357" width="24" height="24" rx="4" fill="#E1E4D9"/>
<rect x="144" y="357" width="24" height="24" rx="4" fill="#537A89"/>
<rect x="176" y="357" width="24" height="24" rx="4" fill="#537A89"/>
<rect x="208" y="357" width="24" height="24" rx="4" fill="#E1E4D9"/>
<rect x="240" y="357" width="24" height="24" rx="4" fill="#E1E4D9"/>
<rect x="272" y="357" width="24" height="24" rx="4" fill="#537A89"/>
<rect x="304" y="357" width="24" height="24" rx="4" fill="#E1E4D9"/>
<rect x="336" y="357" width="24" height="24" rx="4" fill="#E1E4D9"/>
<rect x="368" y="357" width="24" height="24" rx="4" fill="#E1E4D9"/>
<rect x="400" y="357" width="24" height="24" rx="4" fill="#E1E4D9"/>
<rect x="432" y="357" width="24" height="24" rx="4" fill="#E1E4D9"/>
<rect x="464" y="357" width="24" height="24" rx="4" fill="#E1E4D9"/>
<rect x="496" y="357" width="24" height="24" rx="4" fill="#E1E4D9"/>
<rect x="528" y="357" width="24" height="24" rx="4" fill="#537A89"/>
<rect x="560" y="357" width="24" height="24" rx="4" fill="#E1E4D9"/>
<rect x="592" y="357" width="24" height="24" rx="4" fill="#537A89"/>
<rect x="624" y="357" width="24" height="24" rx="4" fill="#537A89"/>
<rect x="656" y="357" width="24" height="24" rx="4" fill="#537A89"/>
<rect x="688" y="357" width="24" height="24" rx="4" fill="#537A89"/>
<rect x="720" y="357" width="24" height="24" rx="4" fill="#E1E4D9"/>
<rect x="752" y="357" width="24" height="24" rx="4" fill="#E1E4D9"/>
<rect x="784" y="357" width="24" height="24" rx="4" fill="#537A89"/>
<rect x="816" y="357" width="24" height="24" rx="4" fill="#E1E4D9"/>
<rect x="848" y="357" width="24" height="24" rx="4" fill="#537A89"/>
<rect x="880" y="357" width="24" height="24" rx="4" fill="#E1E4D9"/>
<rect x="912" y="357" width="24" height="24" rx="4" fill="#E1E4D9"/>
<rect x="944" y="357" width="24" height="24" rx="4" fill="#E1E4D9"/>
<rect x="976" y="357" width="24" height="24" rx="4" fill="#E1E4D9"/>
<rect x="1008" y="357" width="24" height="24" rx="4" fill="#E1E4D9"/>
<rect x="1040" y="357" width="24" height="24" rx="4" fill="#E1E4D9"/>
<rect x="1072" y="357" width="24" height="24" rx="4" fill="#537A89"/>
<rect x="1104" y="357" width="24" height="24" rx="4" fill="#537A89"/>
<rect x="1136" y="357" width="24" height="24" rx="4" fill="#E1E4D9"/>
<rect x="1168" y="357" width="24" height="24" rx="4" fill="#E1E4D9"/>
<rect x="1200" y="357" width="24" height="24" rx="4" fill="#E1E4D9"/>
<rect x="1232" y="357" width="24" height="24" rx="4" fill="#E1E4D9"/>
<rect x="1264" y="357" width="24" height="24" rx="4" fill="#E1E4D9"/>
<rect x="1296" y="357" width="24" height="24" rx="4" fill="#E1E4D9"/>
<rect x="1328" y="357" width="24" height="24" rx="4" fill="#E1E4D9"/>
<rect x="1360" y="357" width="24" height="24" rx="4" fill="#E1E4D9"/>
<rect x="1392" y="357" width="24" height="24" rx="4" fill="#E1E4D9"/>
<rect x="1424" y="357" width="24" height="24" rx="4" fill="#E1E4D9"/>
<rect x="1456" y="357" width="24" height="24" rx="4" fill="#E1E4D9"/>
<rect x="1488" y="357" width="24" height="24" rx="4" fill="#537A89"/>
<rect x="80" y="389" width="24" height="24" rx="4" fill="#E1E4D9"/>
<rect x="112" y="389" width="24" height="24" rx="4" fill="#E1E4D9"/>
<rect x="144" y="389" width="24" height="24" rx="4" fill="#E1E4D9"/>
<rect x="176" y="389" width="24" height="24" rx="4" fill="#E1E4D9"/>
<rect x="208" y="389" width="24" height="24" rx="4" fill="#E1E4D9"/>
<rect x="240" y="389" width="24" height="24" rx="4" fill="#E1E4D9"/>
<rect x="272" y="389" width="24" height="24" rx="4" fill="#E1E4D9"/>
<rect x="304" y="389" width="24" height="24" rx="4" fill="#E1E4D9"/>
<rect x="336" y="389" width="24" height="24" rx="4" fill="#E1E4D9"/>
<rect x="368" y="389" width="24" height="24" rx="4" fill="#E1E4D9"/>
<rect x="400" y="389" width="24" height="24" rx="4" fill="#E1E4D9"/>
<rect x="432" y="389" width="24" height="24" rx="4" fill="#E1E4D9"/>
<rect x="464" y="389" width="24" height="24" rx="4" fill="#E1E4D9"/>
<rect x="496" y="389" width="24" height="24" rx="4" fill="#E1E4D9"/>
<rect x="528" y="389" width="24" height="24" rx="4" fill="#E1E4D9"/>
<rect x="560" y="389" width="24" height="24" rx="4" fill="#E1E4D9"/>
<rect x="592" y="389" width="24" height="24" rx="4" fill="#E1E4D9"/>
<rect x="624" y="389" width="24" height="24" rx="4" fill="#E1E4D9"/>
<rect x="656" y="389" width="24" height="24" rx="4" fill="#E1E4D9"/>
<rect x="688" y="389" width="24" height="24" rx="4" fill="#E1E4D9"/>
<rect x="720" y="389" width="24" height="24" rx="4" fill="#E1E4D9"/>
<rect x="752" y="389" width="24" height="24" rx="4" fill="#E1E4D9"/>
<rect x="784" y="389" width="24" height="24" rx="4" fill="#E1E4D9"/>
<rect x="816" y="389" width="24" height="24" rx="4" fill="#E1E4D9"/>
<rect x="848" y="389" width="24" height="24" rx="4" fill="#E1E4D9"/>
<rect x="880" y="389" width="24" height="24" rx="4" fill="#E1E4D9"/>
<rect x="912" y="389" width="24" height="24" rx="4" fill="#E1E4D9"/>
<rect x="944" y="389" width="24" height="24" rx="4" fill="#E1E4D9"/>
<rect x="976" y="389" width="24" height="24" rx="4" fill="#E1E4D9"/>
<rect x="1008" y="389" width="24" height="24" rx="4" fill="#E1E4D9"/>
<rect x="1040" y="389" width="24" height="24" rx="4" fill="#E1E4D9"/>
<rect x="1072" y="389" width="24" height="24" rx="4" fill="#E1E4D9"/>
<rect x="1104" y="389" width="24" height="24" rx="4" fill="#E1E4D9"/>
<rect x="1136" y="389" width="24" height="24" rx="4" fill="#E1E4D9"/>
<rect x="1168" y="389" width="24" height="24" rx="4" fill="#E1E4D9"/>
<rect x="1200" y="389" width="24" height="24" rx="4" fill="#537A89"/>
<rect x="1232" y="389" width="24" height="24" rx="4" fill="#537A89"/>
<rect x="1264" y="389" width="24" height="24" rx="4" fill="#E1E4D9"/>
<rect x="1296" y="389" width="24" height="24" rx="4" fill="#537A89"/>
<rect x="1328" y="389" width="24" height="24" rx="4" fill="#537A89"/>
<rect x="1360" y="389" width="24" height="24" rx="4" fill="#E1E4D9"/>
<rect x="1392" y="389" width="24" height="24" rx="4" fill="#537A89"/>
<rect x="1424" y="389" width="24" height="24" rx="4" fill="#E1E4D9"/>
<rect x="1456" y="389" width="24" height="24" rx="4" fill="#537A89"/>
<rect x="1488" y="389" width="24" height="24" rx="4" fill="#E1E4D9"/>
<text x="80" y="455" fill="#647367" font-family="Helvetica, Arial, sans-serif" font-size="20" font-weight="400">May 20</text>
<text x="1340" y="455" fill="#647367" font-family="Helvetica, Arial, sans-serif" font-size="20" font-weight="400">October 1</text>
<text x="80" y="500" fill="#365D45" font-family="Helvetica, Arial, sans-serif" font-size="23" font-weight="700">IOS</text>
<text x="330" y="500" fill="#647367" font-family="Helvetica, Arial, sans-serif" font-size="26" font-weight="400">731 commits · 65 active days · 52 merged PRs</text>
<rect x="80" y="535" width="24" height="24" rx="4" fill="#E1E4D9"/>
<rect x="112" y="535" width="24" height="24" rx="4" fill="#E1E4D9"/>
<rect x="144" y="535" width="24" height="24" rx="4" fill="#E1E4D9"/>
<rect x="176" y="535" width="24" height="24" rx="4" fill="#E1E4D9"/>
<rect x="208" y="535" width="24" height="24" rx="4" fill="#E1E4D9"/>
<rect x="240" y="535" width="24" height="24" rx="4" fill="#E1E4D9"/>
<rect x="272" y="535" width="24" height="24" rx="4" fill="#E1E4D9"/>
<rect x="304" y="535" width="24" height="24" rx="4" fill="#E1E4D9"/>
<rect x="336" y="535" width="24" height="24" rx="4" fill="#E1E4D9"/>
<rect x="368" y="535" width="24" height="24" rx="4" fill="#E1E4D9"/>
<rect x="400" y="535" width="24" height="24" rx="4" fill="#E1E4D9"/>
<rect x="432" y="535" width="24" height="24" rx="4" fill="#E1E4D9"/>
<rect x="464" y="535" width="24" height="24" rx="4" fill="#E1E4D9"/>
<rect x="496" y="535" width="24" height="24" rx="4" fill="#E1E4D9"/>
<rect x="528" y="535" width="24" height="24" rx="4" fill="#E1E4D9"/>
<rect x="560" y="535" width="24" height="24" rx="4" fill="#E1E4D9"/>
<rect x="592" y="535" width="24" height="24" rx="4" fill="#E1E4D9"/>
<rect x="624" y="535" width="24" height="24" rx="4" fill="#E1E4D9"/>
<rect x="656" y="535" width="24" height="24" rx="4" fill="#E1E4D9"/>
<rect x="688" y="535" width="24" height="24" rx="4" fill="#365D45"/>
<rect x="720" y="535" width="24" height="24" rx="4" fill="#E1E4D9"/>
<rect x="752" y="535" width="24" height="24" rx="4" fill="#E1E4D9"/>
<rect x="784" y="535" width="24" height="24" rx="4" fill="#E1E4D9"/>
<rect x="816" y="535" width="24" height="24" rx="4" fill="#E1E4D9"/>
<rect x="848" y="535" width="24" height="24" rx="4" fill="#E1E4D9"/>
<rect x="880" y="535" width="24" height="24" rx="4" fill="#365D45"/>
<rect x="912" y="535" width="24" height="24" rx="4" fill="#365D45"/>
<rect x="944" y="535" width="24" height="24" rx="4" fill="#365D45"/>
<rect x="976" y="535" width="24" height="24" rx="4" fill="#365D45"/>
<rect x="1008" y="535" width="24" height="24" rx="4" fill="#365D45"/>
<rect x="1040" y="535" width="24" height="24" rx="4" fill="#365D45"/>
<rect x="1072" y="535" width="24" height="24" rx="4" fill="#365D45"/>
<rect x="1104" y="535" width="24" height="24" rx="4" fill="#365D45"/>
<rect x="1136" y="535" width="24" height="24" rx="4" fill="#E1E4D9"/>
<rect x="1168" y="535" width="24" height="24" rx="4" fill="#E1E4D9"/>
<rect x="1200" y="535" width="24" height="24" rx="4" fill="#E1E4D9"/>
<rect x="1232" y="535" width="24" height="24" rx="4" fill="#E1E4D9"/>
<rect x="1264" y="535" width="24" height="24" rx="4" fill="#E1E4D9"/>
<rect x="1296" y="535" width="24" height="24" rx="4" fill="#365D45"/>
<rect x="1328" y="535" width="24" height="24" rx="4" fill="#365D45"/>
<rect x="1360" y="535" width="24" height="24" rx="4" fill="#365D45"/>
<rect x="1392" y="535" width="24" height="24" rx="4" fill="#365D45"/>
<rect x="1424" y="535" width="24" height="24" rx="4" fill="#365D45"/>
<rect x="1456" y="535" width="24" height="24" rx="4" fill="#365D45"/>
<rect x="1488" y="535" width="24" height="24" rx="4" fill="#365D45"/>
<rect x="80" y="567" width="24" height="24" rx="4" fill="#365D45"/>
<rect x="112" y="567" width="24" height="24" rx="4" fill="#365D45"/>
<rect x="144" y="567" width="24" height="24" rx="4" fill="#365D45"/>
<rect x="176" y="567" width="24" height="24" rx="4" fill="#365D45"/>
<rect x="208" y="567" width="24" height="24" rx="4" fill="#E1E4D9"/>
<rect x="240" y="567" width="24" height="24" rx="4" fill="#E1E4D9"/>
<rect x="272" y="567" width="24" height="24" rx="4" fill="#365D45"/>
<rect x="304" y="567" width="24" height="24" rx="4" fill="#365D45"/>
<rect x="336" y="567" width="24" height="24" rx="4" fill="#365D45"/>
<rect x="368" y="567" width="24" height="24" rx="4" fill="#E1E4D9"/>
<rect x="400" y="567" width="24" height="24" rx="4" fill="#E1E4D9"/>
<rect x="432" y="567" width="24" height="24" rx="4" fill="#E1E4D9"/>
<rect x="464" y="567" width="24" height="24" rx="4" fill="#365D45"/>
<rect x="496" y="567" width="24" height="24" rx="4" fill="#E1E4D9"/>
<rect x="528" y="567" width="24" height="24" rx="4" fill="#E1E4D9"/>
<rect x="560" y="567" width="24" height="24" rx="4" fill="#E1E4D9"/>
<rect x="592" y="567" width="24" height="24" rx="4" fill="#E1E4D9"/>
<rect x="624" y="567" width="24" height="24" rx="4" fill="#365D45"/>
<rect x="656" y="567" width="24" height="24" rx="4" fill="#365D45"/>
<rect x="688" y="567" width="24" height="24" rx="4" fill="#365D45"/>
<rect x="720" y="567" width="24" height="24" rx="4" fill="#365D45"/>
<rect x="752" y="567" width="24" height="24" rx="4" fill="#365D45"/>
<rect x="784" y="567" width="24" height="24" rx="4" fill="#365D45"/>
<rect x="816" y="567" width="24" height="24" rx="4" fill="#E1E4D9"/>
<rect x="848" y="567" width="24" height="24" rx="4" fill="#365D45"/>
<rect x="880" y="567" width="24" height="24" rx="4" fill="#E1E4D9"/>
<rect x="912" y="567" width="24" height="24" rx="4" fill="#E1E4D9"/>
<rect x="944" y="567" width="24" height="24" rx="4" fill="#E1E4D9"/>
<rect x="976" y="567" width="24" height="24" rx="4" fill="#E1E4D9"/>
<rect x="1008" y="567" width="24" height="24" rx="4" fill="#E1E4D9"/>
<rect x="1040" y="567" width="24" height="24" rx="4" fill="#E1E4D9"/>
<rect x="1072" y="567" width="24" height="24" rx="4" fill="#E1E4D9"/>
<rect x="1104" y="567" width="24" height="24" rx="4" fill="#E1E4D9"/>
<rect x="1136" y="567" width="24" height="24" rx="4" fill="#E1E4D9"/>
<rect x="1168" y="567" width="24" height="24" rx="4" fill="#E1E4D9"/>
<rect x="1200" y="567" width="24" height="24" rx="4" fill="#E1E4D9"/>
<rect x="1232" y="567" width="24" height="24" rx="4" fill="#E1E4D9"/>
<rect x="1264" y="567" width="24" height="24" rx="4" fill="#E1E4D9"/>
<rect x="1296" y="567" width="24" height="24" rx="4" fill="#E1E4D9"/>
<rect x="1328" y="567" width="24" height="24" rx="4" fill="#E1E4D9"/>
<rect x="1360" y="567" width="24" height="24" rx="4" fill="#E1E4D9"/>
<rect x="1392" y="567" width="24" height="24" rx="4" fill="#E1E4D9"/>
<rect x="1424" y="567" width="24" height="24" rx="4" fill="#E1E4D9"/>
<rect x="1456" y="567" width="24" height="24" rx="4" fill="#E1E4D9"/>
<rect x="1488" y="567" width="24" height="24" rx="4" fill="#E1E4D9"/>
<rect x="80" y="599" width="24" height="24" rx="4" fill="#E1E4D9"/>
<rect x="112" y="599" width="24" height="24" rx="4" fill="#365D45"/>
<rect x="144" y="599" width="24" height="24" rx="4" fill="#E1E4D9"/>
<rect x="176" y="599" width="24" height="24" rx="4" fill="#365D45"/>
<rect x="208" y="599" width="24" height="24" rx="4" fill="#365D45"/>
<rect x="240" y="599" width="24" height="24" rx="4" fill="#365D45"/>
<rect x="272" y="599" width="24" height="24" rx="4" fill="#365D45"/>
<rect x="304" y="599" width="24" height="24" rx="4" fill="#365D45"/>
<rect x="336" y="599" width="24" height="24" rx="4" fill="#E1E4D9"/>
<rect x="368" y="599" width="24" height="24" rx="4" fill="#365D45"/>
<rect x="400" y="599" width="24" height="24" rx="4" fill="#365D45"/>
<rect x="432" y="599" width="24" height="24" rx="4" fill="#E1E4D9"/>
<rect x="464" y="599" width="24" height="24" rx="4" fill="#365D45"/>
<rect x="496" y="599" width="24" height="24" rx="4" fill="#365D45"/>
<rect x="528" y="599" width="24" height="24" rx="4" fill="#365D45"/>
<rect x="560" y="599" width="24" height="24" rx="4" fill="#365D45"/>
<rect x="592" y="599" width="24" height="24" rx="4" fill="#365D45"/>
<rect x="624" y="599" width="24" height="24" rx="4" fill="#365D45"/>
<rect x="656" y="599" width="24" height="24" rx="4" fill="#E1E4D9"/>
<rect x="688" y="599" width="24" height="24" rx="4" fill="#365D45"/>
<rect x="720" y="599" width="24" height="24" rx="4" fill="#365D45"/>
<rect x="752" y="599" width="24" height="24" rx="4" fill="#365D45"/>
<rect x="784" y="599" width="24" height="24" rx="4" fill="#365D45"/>
<rect x="816" y="599" width="24" height="24" rx="4" fill="#365D45"/>
<rect x="848" y="599" width="24" height="24" rx="4" fill="#365D45"/>
<rect x="880" y="599" width="24" height="24" rx="4" fill="#365D45"/>
<rect x="912" y="599" width="24" height="24" rx="4" fill="#365D45"/>
<rect x="944" y="599" width="24" height="24" rx="4" fill="#E1E4D9"/>
<rect x="976" y="599" width="24" height="24" rx="4" fill="#365D45"/>
<rect x="1008" y="599" width="24" height="24" rx="4" fill="#365D45"/>
<rect x="1040" y="599" width="24" height="24" rx="4" fill="#E1E4D9"/>
<rect x="1072" y="599" width="24" height="24" rx="4" fill="#365D45"/>
<rect x="1104" y="599" width="24" height="24" rx="4" fill="#365D45"/>
<rect x="1136" y="599" width="24" height="24" rx="4" fill="#365D45"/>
<rect x="1168" y="599" width="24" height="24" rx="4" fill="#365D45"/>
<rect x="1200" y="599" width="24" height="24" rx="4" fill="#365D45"/>
<rect x="1232" y="599" width="24" height="24" rx="4" fill="#365D45"/>
<rect x="1264" y="599" width="24" height="24" rx="4" fill="#365D45"/>
<rect x="1296" y="599" width="24" height="24" rx="4" fill="#365D45"/>
<rect x="1328" y="599" width="24" height="24" rx="4" fill="#E1E4D9"/>
<rect x="1360" y="599" width="24" height="24" rx="4" fill="#E1E4D9"/>
<rect x="1392" y="599" width="24" height="24" rx="4" fill="#365D45"/>
<rect x="1424" y="599" width="24" height="24" rx="4" fill="#365D45"/>
<rect x="1456" y="599" width="24" height="24" rx="4" fill="#E1E4D9"/>
<rect x="1488" y="599" width="24" height="24" rx="4" fill="#E1E4D9"/>
<text x="80" y="665" fill="#647367" font-family="Helvetica, Arial, sans-serif" font-size="20" font-weight="400">May 20</text>
<text x="1340" y="665" fill="#647367" font-family="Helvetica, Arial, sans-serif" font-size="20" font-weight="400">October 1</text>
<text x="80" y="710" fill="#AD6D46" font-family="Helvetica, Arial, sans-serif" font-size="23" font-weight="700">PIPELINE</text>
<text x="330" y="710" fill="#647367" font-family="Helvetica, Arial, sans-serif" font-size="26" font-weight="400">114 commits · 22 active days · 19 merged PRs</text>
<rect x="80" y="745" width="24" height="24" rx="4" fill="#E1E4D9"/>
<rect x="112" y="745" width="24" height="24" rx="4" fill="#E1E4D9"/>
<rect x="144" y="745" width="24" height="24" rx="4" fill="#E1E4D9"/>
<rect x="176" y="745" width="24" height="24" rx="4" fill="#E1E4D9"/>
<rect x="208" y="745" width="24" height="24" rx="4" fill="#E1E4D9"/>
<rect x="240" y="745" width="24" height="24" rx="4" fill="#E1E4D9"/>
<rect x="272" y="745" width="24" height="24" rx="4" fill="#E1E4D9"/>
<rect x="304" y="745" width="24" height="24" rx="4" fill="#E1E4D9"/>
<rect x="336" y="745" width="24" height="24" rx="4" fill="#E1E4D9"/>
<rect x="368" y="745" width="24" height="24" rx="4" fill="#E1E4D9"/>
<rect x="400" y="745" width="24" height="24" rx="4" fill="#E1E4D9"/>
<rect x="432" y="745" width="24" height="24" rx="4" fill="#E1E4D9"/>
<rect x="464" y="745" width="24" height="24" rx="4" fill="#E1E4D9"/>
<rect x="496" y="745" width="24" height="24" rx="4" fill="#E1E4D9"/>
<rect x="528" y="745" width="24" height="24" rx="4" fill="#E1E4D9"/>
<rect x="560" y="745" width="24" height="24" rx="4" fill="#E1E4D9"/>
<rect x="592" y="745" width="24" height="24" rx="4" fill="#E1E4D9"/>
<rect x="624" y="745" width="24" height="24" rx="4" fill="#E1E4D9"/>
<rect x="656" y="745" width="24" height="24" rx="4" fill="#E1E4D9"/>
<rect x="688" y="745" width="24" height="24" rx="4" fill="#E1E4D9"/>
<rect x="720" y="745" width="24" height="24" rx="4" fill="#E1E4D9"/>
<rect x="752" y="745" width="24" height="24" rx="4" fill="#E1E4D9"/>
<rect x="784" y="745" width="24" height="24" rx="4" fill="#E1E4D9"/>
<rect x="816" y="745" width="24" height="24" rx="4" fill="#E1E4D9"/>
<rect x="848" y="745" width="24" height="24" rx="4" fill="#E1E4D9"/>
<rect x="880" y="745" width="24" height="24" rx="4" fill="#E1E4D9"/>
<rect x="912" y="745" width="24" height="24" rx="4" fill="#E1E4D9"/>
<rect x="944" y="745" width="24" height="24" rx="4" fill="#E1E4D9"/>
<rect x="976" y="745" width="24" height="24" rx="4" fill="#E1E4D9"/>
<rect x="1008" y="745" width="24" height="24" rx="4" fill="#E1E4D9"/>
<rect x="1040" y="745" width="24" height="24" rx="4" fill="#E1E4D9"/>
<rect x="1072" y="745" width="24" height="24" rx="4" fill="#E1E4D9"/>
<rect x="1104" y="745" width="24" height="24" rx="4" fill="#E1E4D9"/>
<rect x="1136" y="745" width="24" height="24" rx="4" fill="#E1E4D9"/>
<rect x="1168" y="745" width="24" height="24" rx="4" fill="#E1E4D9"/>
<rect x="1200" y="745" width="24" height="24" rx="4" fill="#E1E4D9"/>
<rect x="1232" y="745" width="24" height="24" rx="4" fill="#E1E4D9"/>
<rect x="1264" y="745" width="24" height="24" rx="4" fill="#E1E4D9"/>
<rect x="1296" y="745" width="24" height="24" rx="4" fill="#E1E4D9"/>
<rect x="1328" y="745" width="24" height="24" rx="4" fill="#E1E4D9"/>
<rect x="1360" y="745" width="24" height="24" rx="4" fill="#E1E4D9"/>
<rect x="1392" y="745" width="24" height="24" rx="4" fill="#E1E4D9"/>
<rect x="1424" y="745" width="24" height="24" rx="4" fill="#AD6D46"/>
<rect x="1456" y="745" width="24" height="24" rx="4" fill="#AD6D46"/>
<rect x="1488" y="745" width="24" height="24" rx="4" fill="#AD6D46"/>
<rect x="80" y="777" width="24" height="24" rx="4" fill="#E1E4D9"/>
<rect x="112" y="777" width="24" height="24" rx="4" fill="#E1E4D9"/>
<rect x="144" y="777" width="24" height="24" rx="4" fill="#AD6D46"/>
<rect x="176" y="777" width="24" height="24" rx="4" fill="#E1E4D9"/>
<rect x="208" y="777" width="24" height="24" rx="4" fill="#E1E4D9"/>
<rect x="240" y="777" width="24" height="24" rx="4" fill="#E1E4D9"/>
<rect x="272" y="777" width="24" height="24" rx="4" fill="#E1E4D9"/>
<rect x="304" y="777" width="24" height="24" rx="4" fill="#E1E4D9"/>
<rect x="336" y="777" width="24" height="24" rx="4" fill="#E1E4D9"/>
<rect x="368" y="777" width="24" height="24" rx="4" fill="#E1E4D9"/>
<rect x="400" y="777" width="24" height="24" rx="4" fill="#E1E4D9"/>
<rect x="432" y="777" width="24" height="24" rx="4" fill="#E1E4D9"/>
<rect x="464" y="777" width="24" height="24" rx="4" fill="#E1E4D9"/>
<rect x="496" y="777" width="24" height="24" rx="4" fill="#AD6D46"/>
<rect x="528" y="777" width="24" height="24" rx="4" fill="#AD6D46"/>
<rect x="560" y="777" width="24" height="24" rx="4" fill="#E1E4D9"/>
<rect x="592" y="777" width="24" height="24" rx="4" fill="#E1E4D9"/>
<rect x="624" y="777" width="24" height="24" rx="4" fill="#E1E4D9"/>
<rect x="656" y="777" width="24" height="24" rx="4" fill="#AD6D46"/>
<rect x="688" y="777" width="24" height="24" rx="4" fill="#E1E4D9"/>
<rect x="720" y="777" width="24" height="24" rx="4" fill="#E1E4D9"/>
<rect x="752" y="777" width="24" height="24" rx="4" fill="#AD6D46"/>
<rect x="784" y="777" width="24" height="24" rx="4" fill="#AD6D46"/>
<rect x="816" y="777" width="24" height="24" rx="4" fill="#E1E4D9"/>
<rect x="848" y="777" width="24" height="24" rx="4" fill="#AD6D46"/>
<rect x="880" y="777" width="24" height="24" rx="4" fill="#E1E4D9"/>
<rect x="912" y="777" width="24" height="24" rx="4" fill="#E1E4D9"/>
<rect x="944" y="777" width="24" height="24" rx="4" fill="#E1E4D9"/>
<rect x="976" y="777" width="24" height="24" rx="4" fill="#E1E4D9"/>
<rect x="1008" y="777" width="24" height="24" rx="4" fill="#E1E4D9"/>
<rect x="1040" y="777" width="24" height="24" rx="4" fill="#E1E4D9"/>
<rect x="1072" y="777" width="24" height="24" rx="4" fill="#AD6D46"/>
<rect x="1104" y="777" width="24" height="24" rx="4" fill="#AD6D46"/>
<rect x="1136" y="777" width="24" height="24" rx="4" fill="#E1E4D9"/>
<rect x="1168" y="777" width="24" height="24" rx="4" fill="#E1E4D9"/>
<rect x="1200" y="777" width="24" height="24" rx="4" fill="#E1E4D9"/>
<rect x="1232" y="777" width="24" height="24" rx="4" fill="#AD6D46"/>
<rect x="1264" y="777" width="24" height="24" rx="4" fill="#E1E4D9"/>
<rect x="1296" y="777" width="24" height="24" rx="4" fill="#E1E4D9"/>
<rect x="1328" y="777" width="24" height="24" rx="4" fill="#E1E4D9"/>
<rect x="1360" y="777" width="24" height="24" rx="4" fill="#E1E4D9"/>
<rect x="1392" y="777" width="24" height="24" rx="4" fill="#E1E4D9"/>
<rect x="1424" y="777" width="24" height="24" rx="4" fill="#AD6D46"/>
<rect x="1456" y="777" width="24" height="24" rx="4" fill="#AD6D46"/>
<rect x="1488" y="777" width="24" height="24" rx="4" fill="#AD6D46"/>
<rect x="80" y="809" width="24" height="24" rx="4" fill="#E1E4D9"/>
<rect x="112" y="809" width="24" height="24" rx="4" fill="#AD6D46"/>
<rect x="144" y="809" width="24" height="24" rx="4" fill="#AD6D46"/>
<rect x="176" y="809" width="24" height="24" rx="4" fill="#E1E4D9"/>
<rect x="208" y="809" width="24" height="24" rx="4" fill="#E1E4D9"/>
<rect x="240" y="809" width="24" height="24" rx="4" fill="#E1E4D9"/>
<rect x="272" y="809" width="24" height="24" rx="4" fill="#E1E4D9"/>
<rect x="304" y="809" width="24" height="24" rx="4" fill="#E1E4D9"/>
<rect x="336" y="809" width="24" height="24" rx="4" fill="#E1E4D9"/>
<rect x="368" y="809" width="24" height="24" rx="4" fill="#E1E4D9"/>
<rect x="400" y="809" width="24" height="24" rx="4" fill="#E1E4D9"/>
<rect x="432" y="809" width="24" height="24" rx="4" fill="#E1E4D9"/>
<rect x="464" y="809" width="24" height="24" rx="4" fill="#E1E4D9"/>
<rect x="496" y="809" width="24" height="24" rx="4" fill="#E1E4D9"/>
<rect x="528" y="809" width="24" height="24" rx="4" fill="#AD6D46"/>
<rect x="560" y="809" width="24" height="24" rx="4" fill="#E1E4D9"/>
<rect x="592" y="809" width="24" height="24" rx="4" fill="#E1E4D9"/>
<rect x="624" y="809" width="24" height="24" rx="4" fill="#E1E4D9"/>
<rect x="656" y="809" width="24" height="24" rx="4" fill="#E1E4D9"/>
<rect x="688" y="809" width="24" height="24" rx="4" fill="#E1E4D9"/>
<rect x="720" y="809" width="24" height="24" rx="4" fill="#E1E4D9"/>
<rect x="752" y="809" width="24" height="24" rx="4" fill="#E1E4D9"/>
<rect x="784" y="809" width="24" height="24" rx="4" fill="#E1E4D9"/>
<rect x="816" y="809" width="24" height="24" rx="4" fill="#E1E4D9"/>
<rect x="848" y="809" width="24" height="24" rx="4" fill="#E1E4D9"/>
<rect x="880" y="809" width="24" height="24" rx="4" fill="#E1E4D9"/>
<rect x="912" y="809" width="24" height="24" rx="4" fill="#E1E4D9"/>
<rect x="944" y="809" width="24" height="24" rx="4" fill="#E1E4D9"/>
<rect x="976" y="809" width="24" height="24" rx="4" fill="#E1E4D9"/>
<rect x="1008" y="809" width="24" height="24" rx="4" fill="#E1E4D9"/>
<rect x="1040" y="809" width="24" height="24" rx="4" fill="#E1E4D9"/>
<rect x="1072" y="809" width="24" height="24" rx="4" fill="#E1E4D9"/>
<rect x="1104" y="809" width="24" height="24" rx="4" fill="#E1E4D9"/>
<rect x="1136" y="809" width="24" height="24" rx="4" fill="#E1E4D9"/>
<rect x="1168" y="809" width="24" height="24" rx="4" fill="#E1E4D9"/>
<rect x="1200" y="809" width="24" height="24" rx="4" fill="#E1E4D9"/>
<rect x="1232" y="809" width="24" height="24" rx="4" fill="#AD6D46"/>
<rect x="1264" y="809" width="24" height="24" rx="4" fill="#E1E4D9"/>
<rect x="1296" y="809" width="24" height="24" rx="4" fill="#AD6D46"/>
<rect x="1328" y="809" width="24" height="24" rx="4" fill="#E1E4D9"/>
<rect x="1360" y="809" width="24" height="24" rx="4" fill="#E1E4D9"/>
<rect x="1392" y="809" width="24" height="24" rx="4" fill="#AD6D46"/>
<rect x="1424" y="809" width="24" height="24" rx="4" fill="#E1E4D9"/>
<rect x="1456" y="809" width="24" height="24" rx="4" fill="#E1E4D9"/>
<rect x="1488" y="809" width="24" height="24" rx="4" fill="#E1E4D9"/>
<text x="80" y="875" fill="#647367" font-family="Helvetica, Arial, sans-serif" font-size="20" font-weight="400">May 20</text>
<text x="1340" y="875" fill="#647367" font-family="Helvetica, Arial, sans-serif" font-size="20" font-weight="400">October 1</text>
<rect x="80" y="950" width="1440" height="80" rx="18" fill="#E7E9DD"/>
<text x="110" y="999" fill="#647367" font-family="Helvetica, Arial, sans-serif" font-size="24" font-weight="400">Each row reads left → right, then continues on the next line. One square = one day.</text>
<text x="80" y="1080" fill="#647367" font-family="Helvetica, Arial, sans-serif" font-size="19" font-weight="400">Colors mark activity, not time spent. Commit author dates in America/Denver; main histories only.</text>
<text x="80" y="1122" fill="#365D45" font-family="Helvetica, Arial, sans-serif" font-size="21" font-weight="600">GPXplore · October 1, 2026 · gpxplore.net</text>
</svg>